{"title":"Ghost Rider Spirit of Vengeance 2012 TS XviD Feel-Free","uid":7051559,"size":895382582,"categoryP":"video","categoryS":"movies","magnet":"?xt=urn:btih:bc6c491d5fc732dad738d51699e085b74f74c88c&amp;dn=Ghost+Rider+Spirit+of+Vengeance+2012+TS+XviD+Feel-Free&amp;tr=udp%3A%2F%2Ftracker.openbittorrent.com%3A80&amp;tr=udp%3A%2F%2Fopen.demonii.com%3A1337&amp;tr=udp%3A%2F%2Ftracker.coppersurfer.tk%3A6969&amp;tr=udp%3A%2F%2Fexodus.desync.com%3A6969","seeders":1,"leechers":0,"uploader":".BONE.","files":9,"time":1329978739,"description":"Genre: Action | Fantasy | Thriller\nLanguage:English &lt;a href=&quot;\nhttp://www.imdb.com/title/tt1071875/&quot; rel=&quot;nofollow&quot; target=&quot;_NEW&quot;&gt;\nhttp://www.imdb.com/title/tt1071875/&lt;/a&gt;\nSource:ILLUMINATI Thanks!\nEncoder:Tony\n\nFormat : AVI\nFormat/Info : Audio Video Interleave\nFile size : 853 MiB\nDuration : 1h 28mn\nOverall bit rate : 1 353 Kbps\n\n\nVideo\nID : 0\nFormat : MPEG-4 Visual\nFormat profile : Advanced Simple@L5\nFormat settings, BVOP : 2\nFormat settings, QPel : No\nFormat settings, GMC : No warppoints\nFormat settings, Matrix : Default (H.263)\nMuxing mode : Packed bitstream\nCodec ID : XVID\nCodec ID/Hint : XviD\nDuration : 1h 28mn\nBit rate : 1 216 Kbps\nWidth : 720 pixels\nHeight : 288 pixels\nDisplay aspect ratio : 2.500\nFrame rate : 23.976 fps\nColor space : YUV\nChroma subsampling : 4:2:0\nBit depth : 8 bits\nScan type : Progressive\nCompression mode : Lossy\nBits/(Pixel*Frame) : 0.245\nStream size : 766 MiB (90%)\nWriting library : XviD 64\n\nAudio\nID : 1\nFormat : MPEG Audio\nFormat version : Version 1\nFormat profile : Layer 3\nMode : Joint stereo\nMode extension : MS Stereo\nCodec ID : 55\nCodec ID/Hint : MP3\nDuration : 1h 28mn\nBit rate mode : Constant\nBit rate : 128 Kbps\nChannel(s) : 2 channels\nSampling rate : 44.1 KHz\nCompression mode : Lossy\nStream size : 80.7 MiB (9%)\nAlignment : Split accross interleaves\nInterleave, duration : 42 ms (1.00 video frame)\nInterleave, preload duration : 500 ms\nWriting library : LAME3.99r\n\n\nPlot:\nAs Johnny Blaze hides out in Eastern Europe, he is called upon to stop the devil, who is trying to take human form.\n\n &lt;a href=&quot;\nhttp://imgcrave.com/u/0qBFM.png&quot; rel=&quot;nofollow&quot; target=&quot;_NEW&quot;&gt;\nhttp://imgcrave.com/u/0qBFM.png&lt;/a&gt; &lt;a href=&quot;\nhttp://imgcrave.com/u/e9Dyg.png&quot; rel=&quot;nofollow&quot; target=&quot;_NEW&quot;&gt;\nhttp://imgcrave.com/u/e9Dyg.png&lt;/a&gt; &lt;a href=&quot;\nhttp://imgcrave.com/u/Yt5Z.png&quot; rel=&quot;nofollow&quot; target=&quot;_NEW&quot;&gt;\nhttp://imgcrave.com/u/Yt5Z.png&lt;/a&gt; &lt;a href=&quot;\nhttp://imgcrave.com/u/CJUz0.png&quot; rel=&quot;nofollow&quot; target=&quot;_NEW&quot;&gt;\nhttp://imgcrave.com/u/CJUz0.png&lt;/a&gt;\n","torrent":{"xt":"urn:btih:bc6c491d5fc732dad738d51699e085b74f74c88c","amp;dn":"Ghost+Rider+Spirit+of+Vengeance+2012+TS+XviD+Feel-Free","amp;tr":["udp%3A%2F%2Ftracker.openbittorrent.com%3A80","udp%3A%2F%2Fopen.demonii.com%3A1337","udp%3A%2F%2Ftracker.coppersurfer.tk%3A6969","udp%3A%2F%2Fexodus.desync.com%3A6969"],"infoHash":"bc6c491d5fc732dad738d51699e085b74f74c88c","infoHashBuffer":{"type":"Buffer","data":[188,108,73,29,95,199,50,218,215,56,213,22,153,224,133,183,79,116,200,140]},"announce":[],"urlList":[]}}